<svg width="24" height="24" viewBox="0 0 24 24" fill="none" xmlns="http://www.w3.org/2000/svg">
<path d="M11.9456 0C5.34938 0 0 5.34938 0 11.9475C0 18.5456 5.34938 23.8931 11.9456 23.8931C18.5438 23.8931 23.8913 18.5456 23.8913 11.9475C23.8913 5.34938 18.5438 0 11.9456 0ZM11.9456 22.7494C5.98875 22.7494 1.14375 17.9044 1.14375 11.9494C1.14375 5.99063 5.98875 1.14562 11.9456 1.14562C17.9025 1.14562 22.7475 5.99063 22.7475 11.9475C22.7475 17.9044 17.9025 22.7494 11.9456 22.7494Z" fill="#40C0E7"/>
<path d="M16.1344 14.2968C16.1234 14.2757 16.108 14.2573 16.0892 14.2427C16.0705 14.2281 16.0488 14.2178 16.0256 14.2124C15.9769 14.203 15.9281 14.2124 15.8906 14.2443C15.0338 14.923 13.5619 15.4349 12.4669 15.4349C10.3481 15.4349 8.86688 14.0005 8.86688 11.9474C8.86688 9.89426 10.3481 8.45988 12.4669 8.45988C13.6125 8.45988 14.7881 8.82926 15.5344 9.42363C15.5719 9.45363 15.6206 9.46488 15.6675 9.45551C15.7144 9.44613 15.7538 9.41613 15.7781 9.37488L17.475 6.28301C17.5144 6.21363 17.4956 6.12738 17.4338 6.07863C16.1513 5.06238 14.52 4.56738 12.4519 4.56738C8.04563 4.56738 4.84875 7.67238 4.84875 11.9511C4.84875 16.2299 8.04563 19.3349 12.4519 19.3349C14.4675 19.3349 16.2094 18.7218 17.6269 17.5105C17.6831 17.4618 17.7 17.3811 17.6663 17.3136L16.1344 14.2968Z" fill="#40C0E7"/>
</svg>
