<svg width="29" height="42" viewBox="0 0 29 42" fill="none" xmlns="http://www.w3.org/2000/svg">
<path d="M7.72949 42C11.5935 42 14.7295 38.864 14.7295 35V28H7.72949C3.86549 28 0.729492 31.136 0.729492 35C0.729492 38.864 3.86549 42 7.72949 42Z" fill="#0ACF83"/>
<path d="M0.729492 21C0.729492 17.136 3.86549 14 7.72949 14H14.7295V28H7.72949C3.86549 28 0.729492 24.864 0.729492 21Z" fill="#A259FF"/>
<path d="M0.729492 7C0.729492 3.136 3.86549 0 7.72949 0H14.7295V14H7.72949C3.86549 14 0.729492 10.864 0.729492 7Z" fill="#F24E1E"/>
<path d="M14.7295 0H21.7295C25.5935 0 28.7295 3.136 28.7295 7C28.7295 10.864 25.5935 14 21.7295 14H14.7295V0Z" fill="#FF7262"/>
<path d="M28.7295 21C28.7295 24.864 25.5935 28 21.7295 28C17.8655 28 14.7295 24.864 14.7295 21C14.7295 17.136 17.8655 14 21.7295 14C25.5935 14 28.7295 17.136 28.7295 21Z" fill="#1ABCFE"/>
</svg>
