<svg width="22" height="23" viewBox="0 0 22 23" fill="none" xmlns="http://www.w3.org/2000/svg">
<path fill-rule="evenodd" clip-rule="evenodd" d="M7.92183 0.436268C5.78673 1.05732 3.88857 2.30787 2.47531 4.02456C1.06204 5.74125 0.199376 7.84427 0 10.0589H5.04877C5.34145 6.68893 6.31854 3.4141 7.92025 0.43469L7.92183 0.436268ZM5.04877 12.0311H0C0.19896 14.2458 1.06126 16.349 2.47424 18.066C3.88723 19.783 5.78521 21.0339 7.92025 21.6553C6.31854 18.6759 5.34145 15.401 5.04877 12.0311ZM10.4509 22.0765C8.53683 19.0433 7.36394 15.6019 7.02725 12.0311H14.9712C14.6345 15.6019 13.4616 19.0433 11.5475 22.0765C11.1822 22.0943 10.8162 22.0943 10.4509 22.0765ZM14.0797 21.6537C16.2146 21.0324 18.1124 19.7817 19.5253 18.0651C20.9383 16.3484 21.8007 14.2455 22 12.0311H16.9512C16.6585 15.401 15.6815 18.6759 14.0797 21.6553V21.6537ZM16.9512 10.0589H22C21.801 7.84419 20.9387 5.74096 19.5258 4.02399C18.1128 2.30701 16.2148 1.05611 14.0797 0.43469C15.6815 3.41408 16.6586 6.68892 16.9512 10.0589ZM10.4509 0.0134335C10.8168 -0.00447782 11.1832 -0.00447782 11.5491 0.0134335C13.4626 3.04681 14.635 6.48818 14.9712 10.0589H7.02883C7.3712 6.46639 8.54661 3.02218 10.4509 0.0134335Z" fill="#FEBA19"/>
</svg>
