<svg width="36" height="36" viewBox="0 0 36 36" fill="none" xmlns="http://www.w3.org/2000/svg">
<path d="M25.5 5.24999C25.5 5.05108 25.421 4.86031 25.2803 4.71966C25.1397 4.57901 24.9489 4.49999 24.75 4.49999H21C19.1117 4.40592 17.2629 5.06308 15.8576 6.32786C14.4523 7.59264 13.6047 9.36223 13.5 11.25V15.3H9.75C9.55109 15.3 9.36032 15.379 9.21967 15.5197C9.07902 15.6603 9 15.8511 9 16.05V19.95C9 20.1489 9.07902 20.3397 9.21967 20.4803C9.36032 20.621 9.55109 20.7 9.75 20.7H13.5V30.75C13.5 30.9489 13.579 31.1397 13.7197 31.2803C13.8603 31.421 14.0511 31.5 14.25 31.5H18.75C18.9489 31.5 19.1397 31.421 19.2803 31.2803C19.421 31.1397 19.5 30.9489 19.5 30.75V20.7H23.43C23.5968 20.7024 23.7596 20.6491 23.8927 20.5486C24.0258 20.4481 24.1217 20.3061 24.165 20.145L25.245 16.245C25.2748 16.1342 25.2789 16.018 25.2567 15.9054C25.2346 15.7928 25.1869 15.6867 25.1174 15.5954C25.0478 15.5042 24.9582 15.43 24.8555 15.3788C24.7528 15.3276 24.6398 15.3006 24.525 15.3H19.5V11.25C19.5373 10.8787 19.7117 10.5347 19.989 10.285C20.2664 10.0354 20.6269 9.89812 21 9.89999H24.75C24.9489 9.89999 25.1397 9.82097 25.2803 9.68032C25.421 9.53967 25.5 9.3489 25.5 9.14999V5.24999Z" fill="white"/>
</svg>
