<svg width="36" height="36" viewBox="0 0 36 36" fill="none" xmlns="http://www.w3.org/2000/svg">
<path d="M22.725 12.6C21.5753 12.5961 20.4361 12.8188 19.3727 13.2556C18.3092 13.6924 17.3423 14.3346 16.5272 15.1454C15.7122 15.9563 15.0651 16.9199 14.6228 17.9811C14.1806 19.0423 13.9519 20.1803 13.95 21.33V30.15C13.95 30.508 14.0922 30.8514 14.3454 31.1046C14.5986 31.3578 14.9419 31.5 15.3 31.5H18.45C18.808 31.5 19.1514 31.3578 19.4046 31.1046C19.6577 30.8514 19.8 30.508 19.8 30.15V21.33C19.7997 20.9211 19.8856 20.5167 20.052 20.1432C20.2185 19.7698 20.4618 19.4356 20.7661 19.1624C21.0704 18.8893 21.4288 18.6833 21.818 18.558C22.2072 18.4326 22.6185 18.3907 23.025 18.435C23.754 18.5268 24.424 18.883 24.9078 19.436C25.3917 19.9889 25.6557 20.7002 25.65 21.435V30.15C25.65 30.508 25.7922 30.8514 26.0454 31.1046C26.2986 31.3578 26.6419 31.5 27 31.5H30.15C30.508 31.5 30.8514 31.3578 31.1046 31.1046C31.3578 30.8514 31.5 30.508 31.5 30.15V21.33C31.498 20.1803 31.2694 19.0423 30.8271 17.9811C30.3849 16.9199 29.7378 15.9563 28.9227 15.1454C28.1077 14.3346 27.1408 13.6924 26.0773 13.2556C25.0138 12.8188 23.8747 12.5961 22.725 12.6Z" fill="#FEBA19"/>
<path d="M9.9 13.95H5.85C5.10442 13.95 4.5 14.5544 4.5 15.3V30.15C4.5 30.8956 5.10442 31.5 5.85 31.5H9.9C10.6456 31.5 11.25 30.8956 11.25 30.15V15.3C11.25 14.5544 10.6456 13.95 9.9 13.95Z" fill="#FEBA19"/>
<path d="M7.875 11.25C9.73896 11.25 11.25 9.73896 11.25 7.875C11.25 6.01104 9.73896 4.5 7.875 4.5C6.01104 4.5 4.5 6.01104 4.5 7.875C4.5 9.73896 6.01104 11.25 7.875 11.25Z" fill="#FEBA19"/>
</svg>
